<svg width="186" height="25" viewBox="0 0 186 25" fill="none" xmlns="http://www.w3.org/2000/svg">
<path d="M8.784 13.076C8.34 14.252 7.656 15.23 6.732 16.01C5.82 16.79 4.734 17.18 3.474 17.18C2.214 17.18 1.446 16.958 1.17 16.514C1.494 12.506 1.674 9.008 1.71 6.02H0.324C0.324 5.744 0.384 5.486 0.504 5.246C1.308 5.15 2.034 4.958 2.682 4.67C2.85 4.67 3 4.748 3.132 4.904C3.264 5.048 3.33 5.24 3.33 5.48C2.97 10.364 2.79 13.844 2.79 15.92H5.13C5.598 15.764 6.114 15.344 6.678 14.66C7.578 13.568 8.16 12.158 8.424 10.43C8.532 9.722 8.586 9.146 8.586 8.702C8.586 7.31 8.412 6.236 8.064 5.48C8.1 5.42 8.16 5.348 8.244 5.264C8.34 5.168 8.568 5.048 8.928 4.904C9.288 4.748 9.69 4.67 10.134 4.67C10.134 6.074 10.02 7.532 9.792 9.044C9.564 10.556 9.228 11.9 8.784 13.076ZM15.2847 16.352C15.2847 16.628 15.2247 16.886 15.1047 17.126C13.9287 17.042 13.1607 17 12.8007 17C12.2727 17 11.7087 17.036 11.1087 17.108L10.8747 17.126C10.8747 16.85 10.9347 16.592 11.0547 16.352C11.5107 16.22 11.9067 16.016 12.2427 15.74C12.5547 13.04 12.8247 9.674 13.0527 5.642L11.6847 5.408C11.6847 5.132 11.7447 4.874 11.8647 4.634C12.9207 4.718 13.6707 4.76 14.1147 4.76L16.0947 4.634C16.0947 4.91 16.0347 5.168 15.9147 5.408C15.3507 5.504 14.9007 5.69 14.5647 5.966C14.2527 8.57 13.9887 11.942 13.7727 16.082L15.2847 16.352ZM20.8644 5.75C20.0964 6.038 19.7124 6.602 19.7124 7.442C19.7124 8.27 20.3904 9.074 21.7464 9.854C22.8864 10.502 23.7084 11.09 24.2124 11.618C24.7284 12.146 24.9864 12.71 24.9864 13.31C24.9864 14.642 24.5604 15.65 23.7084 16.334C22.8684 17.018 21.6864 17.36 20.1624 17.36C18.3024 17.36 17.1924 16.94 16.8324 16.1C17.0844 15.644 17.2884 15.05 17.4444 14.318L17.5344 13.958C17.8344 13.85 18.1584 13.796 18.5064 13.796C18.4104 14.06 18.3624 14.366 18.3624 14.714C18.3624 15.302 18.5184 15.704 18.8304 15.92H22.4304C23.1384 15.476 23.4924 14.828 23.4924 13.976C23.4924 13.424 23.2764 12.914 22.8444 12.446C22.4124 11.966 21.7404 11.462 20.8284 10.934C19.9284 10.406 19.2864 9.95 18.9024 9.566C18.5184 9.182 18.3264 8.696 18.3264 8.108C18.3264 6.896 18.7344 5.99 19.5504 5.39C20.3664 4.79 21.4404 4.49 22.7724 4.49C23.3964 4.49 23.9484 4.598 24.4284 4.814C24.9204 5.018 25.2144 5.27 25.3104 5.57C25.0584 6.026 24.8484 6.62 24.6804 7.352L24.6084 7.712C24.3084 7.82 23.9844 7.874 23.6364 7.874C23.7324 7.61 23.7804 7.304 23.7804 6.956C23.7804 6.368 23.6244 5.966 23.3124 5.75H20.8644ZM30.9116 16.352C30.9116 16.628 30.8516 16.886 30.7316 17.126C29.5556 17.042 28.7876 17 28.4276 17C27.8996 17 27.3356 17.036 26.7356 17.108L26.5016 17.126C26.5016 16.85 26.5616 16.592 26.6816 16.352C27.1376 16.22 27.5336 16.016 27.8696 15.74C28.1816 13.04 28.4516 9.674 28.6796 5.642L27.3116 5.408C27.3116 5.132 27.3716 4.874 27.4916 4.634C28.5476 4.718 29.2976 4.76 29.7416 4.76L31.7216 4.634C31.7216 4.91 31.6616 5.168 31.5416 5.408C30.9776 5.504 30.5276 5.69 30.1916 5.966C29.8796 8.57 29.6156 11.942 29.3996 16.082L30.9116 16.352ZM39.0653 16.352C39.0653 16.628 39.0053 16.886 38.8853 17.126C37.8893 17.054 37.1273 17.012 36.5993 17H36.3653L34.6553 17.126C34.6553 16.85 34.7153 16.592 34.8353 16.352C35.2913 16.22 35.6873 16.016 36.0233 15.74C36.3353 13.112 36.6053 9.8 36.8333 5.804L33.8273 5.93C33.6113 6.278 33.4553 6.692 33.3593 7.172C33.1313 7.256 32.8253 7.31 32.4413 7.334L32.3873 7.208C32.6033 6.416 32.7533 5.558 32.8373 4.634C34.7093 4.718 36.3713 4.76 37.8233 4.76L43.1153 4.634L43.1693 4.76C42.9053 5.36 42.6953 6.092 42.5393 6.956L42.4673 7.352C42.2033 7.46 41.8853 7.514 41.5133 7.514C41.6333 6.998 41.7173 6.47 41.7653 5.93C40.6493 5.87 39.5153 5.828 38.3633 5.804C38.0273 8.72 37.7573 12.146 37.5533 16.082L39.0653 16.352ZM47.0355 5.408C47.0355 5.132 47.0955 4.874 47.2155 4.634C48.1755 4.718 48.8775 4.76 49.3215 4.76H55.6935C55.8015 4.856 55.8975 5.006 55.9815 5.21C55.7295 5.654 55.5255 6.194 55.3695 6.83L55.2795 7.136C55.0395 7.244 54.7455 7.298 54.3975 7.298C54.5055 6.818 54.5595 6.458 54.5595 6.218C54.5595 5.978 54.4695 5.822 54.2895 5.75H49.9155C49.6875 7.718 49.5315 9.248 49.4475 10.34H53.4795C53.6715 10.052 53.8155 9.728 53.9115 9.368C53.9955 9.332 54.1155 9.314 54.2715 9.314L54.6675 9.386C54.4155 10.178 54.2295 11.192 54.1095 12.428C54.0135 12.476 53.8935 12.5 53.7495 12.5L53.4435 12.446C53.4435 11.966 53.3955 11.564 53.2995 11.24H49.3935C49.2975 12.608 49.2015 14.222 49.1055 16.082L50.5815 16.352C50.5815 16.628 50.5215 16.886 50.4015 17.126C49.4055 17.042 48.7035 17 48.2955 17C47.7195 17 47.1015 17.036 46.4415 17.108L46.1715 17.126C46.1715 16.85 46.2315 16.592 46.3515 16.352C46.8315 16.208 47.2395 15.992 47.5755 15.704C47.8875 13.064 48.1575 9.74 48.3855 5.732L47.0355 5.408ZM67.4537 16.442C67.4537 16.718 67.3937 16.976 67.2737 17.216C66.0377 17.132 65.1977 17.09 64.7537 17.09L62.8637 17.216C62.8637 16.94 62.9237 16.682 63.0437 16.442C63.3917 16.358 63.7217 16.238 64.0337 16.082C63.6617 14.174 63.4457 13.088 63.3857 12.824C61.9817 12.788 61.0517 12.77 60.5957 12.77C60.1517 12.77 59.6297 12.794 59.0297 12.842L57.4457 16.082L58.9937 16.442C58.9937 16.718 58.9337 16.976 58.8137 17.216C57.8537 17.132 57.1517 17.09 56.7077 17.09L54.9977 17.216C54.9977 16.94 55.0577 16.682 55.1777 16.442C55.5617 16.334 55.9157 16.166 56.2397 15.938C58.4837 11.978 60.2777 8.51 61.6217 5.534L61.4777 4.958C61.9937 4.706 62.5457 4.58 63.1337 4.58C64.2617 9.68 65.2037 13.544 65.9597 16.172L67.4537 16.442ZM59.4797 11.906C60.0437 11.942 60.6197 11.96 61.2077 11.96C61.8077 11.96 62.4677 11.948 63.1877 11.924C63.0437 11.24 62.6477 9.596 61.9997 6.992C61.3637 8.156 60.5237 9.794 59.4797 11.906ZM77.8735 16.442C77.8735 16.718 77.8135 16.976 77.6935 17.216C76.6855 17.132 75.7915 17.09 75.0115 17.09C74.3755 15.41 73.6075 13.664 72.7075 11.852C72.3955 11.912 72.0115 11.942 71.5555 11.942H70.8535L70.6195 16.082L72.0955 16.352C72.0955 16.628 72.0355 16.886 71.9155 17.126C70.6795 17.042 69.8395 17 69.3955 17L67.6855 17.126C67.6855 16.85 67.7455 16.592 67.8655 16.352C68.3455 16.208 68.7535 15.992 69.0895 15.704C69.4015 13.064 69.6715 9.74 69.8995 5.732L68.5675 5.408C68.5675 5.132 68.6275 4.874 68.7475 4.634C69.7075 4.718 70.4095 4.76 70.8535 4.76L73.3015 4.58C74.3455 4.58 75.1795 4.82 75.8035 5.3C76.4395 5.768 76.7575 6.5 76.7575 7.496C76.7575 8.48 76.5235 9.302 76.0555 9.962C75.5875 10.61 74.9515 11.108 74.1475 11.456C74.9155 13.244 75.6895 14.828 76.4695 16.208L77.8735 16.442ZM75.3535 8.036C75.3535 7.52 75.2155 7.04 74.9395 6.596C74.6755 6.14 74.2975 5.858 73.8055 5.75H71.4295C71.1895 7.814 71.0155 9.572 70.9075 11.024H72.7435C73.5595 10.868 74.1955 10.52 74.6515 9.98C75.1195 9.428 75.3535 8.78 75.3535 8.036ZM78.3442 12.662C78.3442 10.982 78.7162 9.458 79.4602 8.09C80.2762 6.59 81.3982 5.552 82.8262 4.976C83.6062 4.652 84.4522 4.49 85.3642 4.49C86.6362 4.49 87.6382 4.934 88.3702 5.822C89.1142 6.698 89.4862 7.814 89.4862 9.17C89.4862 11.258 88.9162 13.112 87.7762 14.732C87.2242 15.524 86.4862 16.16 85.5622 16.64C84.6502 17.12 83.5882 17.36 82.3762 17.36C81.1642 17.36 80.1862 16.916 79.4422 16.028C78.7102 15.14 78.3442 14.018 78.3442 12.662ZM83.0242 5.75C82.0162 6.29 81.2362 7.118 80.6842 8.234C80.1322 9.338 79.8562 10.454 79.8562 11.582C79.8562 12.698 80.0662 13.652 80.4862 14.444C80.9182 15.224 81.5422 15.716 82.3582 15.92H84.8602C85.8682 15.38 86.6362 14.576 87.1642 13.508C87.7042 12.44 87.9742 11.348 87.9742 10.232C87.9742 9.116 87.7642 8.156 87.3442 7.352C86.9362 6.548 86.3362 6.014 85.5442 5.75H83.0242ZM99.6836 4.76C99.7916 4.856 99.8876 5.006 99.9716 5.21C99.7196 5.654 99.5096 6.194 99.3416 6.83L99.2696 7.136C99.0296 7.244 98.7356 7.298 98.3876 7.298C98.4956 6.818 98.5496 6.458 98.5496 6.218C98.5496 5.978 98.4596 5.822 98.2796 5.75H93.9056C93.6776 7.718 93.5216 9.248 93.4376 10.34H97.4696C97.6616 10.052 97.8056 9.728 97.9016 9.368C97.9856 9.332 98.1056 9.314 98.2616 9.314L98.6576 9.386C98.4056 10.178 98.2196 11.192 98.0996 12.428C98.0036 12.476 97.8836 12.5 97.7396 12.5L97.4336 12.446C97.4336 11.966 97.3856 11.564 97.2896 11.24H93.3836C93.2756 12.704 93.1856 14.264 93.1136 15.92H97.7756C98.0036 15.584 98.1716 15.2 98.2796 14.768L98.3336 14.534C98.7056 14.606 98.9576 14.732 99.0896 14.912L99.1616 15.02C98.9216 15.62 98.7656 16.28 98.6936 17H91.9436L90.2336 17.126C90.2336 16.85 90.2936 16.592 90.4136 16.352C90.8456 16.22 91.2296 16.022 91.5656 15.758C91.8776 13.082 92.1476 9.74 92.3756 5.732L91.0256 5.408C91.0256 5.132 91.0856 4.874 91.2056 4.634C91.9736 4.718 92.5976 4.76 93.0776 4.76H99.6836ZM108.853 16.352C108.853 16.628 108.793 16.886 108.673 17.126C107.497 17.042 106.729 17 106.369 17C105.841 17 105.277 17.036 104.677 17.108L104.443 17.126C104.443 16.85 104.503 16.592 104.623 16.352C105.079 16.22 105.475 16.016 105.811 15.74C106.123 13.04 106.393 9.674 106.621 5.642L105.253 5.408C105.253 5.132 105.313 4.874 105.433 4.634C106.489 4.718 107.239 4.76 107.683 4.76L109.663 4.634C109.663 4.91 109.603 5.168 109.483 5.408C108.919 5.504 108.469 5.69 108.133 5.966C107.821 8.57 107.557 11.942 107.341 16.082L108.853 16.352ZM114.433 5.75C113.665 6.038 113.281 6.602 113.281 7.442C113.281 8.27 113.959 9.074 115.315 9.854C116.455 10.502 117.277 11.09 117.781 11.618C118.297 12.146 118.555 12.71 118.555 13.31C118.555 14.642 118.129 15.65 117.277 16.334C116.437 17.018 115.255 17.36 113.731 17.36C111.871 17.36 110.761 16.94 110.401 16.1C110.653 15.644 110.857 15.05 111.013 14.318L111.103 13.958C111.403 13.85 111.727 13.796 112.075 13.796C111.979 14.06 111.931 14.366 111.931 14.714C111.931 15.302 112.087 15.704 112.399 15.92H115.999C116.707 15.476 117.061 14.828 117.061 13.976C117.061 13.424 116.845 12.914 116.413 12.446C115.981 11.966 115.309 11.462 114.397 10.934C113.497 10.406 112.855 9.95 112.471 9.566C112.087 9.182 111.895 8.696 111.895 8.108C111.895 6.896 112.303 5.99 113.119 5.39C113.935 4.79 115.009 4.49 116.341 4.49C116.965 4.49 117.517 4.598 117.997 4.814C118.489 5.018 118.783 5.27 118.879 5.57C118.627 6.026 118.417 6.62 118.249 7.352L118.177 7.712C117.877 7.82 117.553 7.874 117.205 7.874C117.301 7.61 117.349 7.304 117.349 6.956C117.349 6.368 117.193 5.966 116.881 5.75H114.433ZM120.952 5.408C120.952 5.132 121.012 4.874 121.132 4.634C122.248 4.718 122.992 4.76 123.364 4.76C123.88 4.76 124.456 4.724 125.092 4.652L125.362 4.634C125.362 4.91 125.302 5.168 125.182 5.408C124.582 5.516 124.114 5.714 123.778 6.002C123.454 8.762 123.196 12.068 123.004 15.92H127.954C128.182 15.584 128.344 15.152 128.44 14.624L128.476 14.354C128.836 14.426 129.13 14.588 129.358 14.84C129.106 15.464 128.956 16.184 128.908 17H121.762L120.052 17.126C120.052 16.85 120.112 16.592 120.232 16.352C120.712 16.208 121.12 15.992 121.456 15.704C121.756 13.1 122.032 9.746 122.284 5.642L120.952 5.408ZM141.704 16.442C141.704 16.718 141.644 16.976 141.524 17.216C140.288 17.132 139.448 17.09 139.004 17.09L137.114 17.216C137.114 16.94 137.174 16.682 137.294 16.442C137.642 16.358 137.972 16.238 138.284 16.082C137.912 14.174 137.696 13.088 137.636 12.824C136.232 12.788 135.302 12.77 134.846 12.77C134.402 12.77 133.88 12.794 133.28 12.842L131.696 16.082L133.244 16.442C133.244 16.718 133.184 16.976 133.064 17.216C132.104 17.132 131.402 17.09 130.958 17.09L129.248 17.216C129.248 16.94 129.308 16.682 129.428 16.442C129.812 16.334 130.166 16.166 130.49 15.938C132.734 11.978 134.528 8.51 135.872 5.534L135.728 4.958C136.244 4.706 136.796 4.58 137.384 4.58C138.512 9.68 139.454 13.544 140.21 16.172L141.704 16.442ZM133.73 11.906C134.294 11.942 134.87 11.96 135.458 11.96C136.058 11.96 136.718 11.948 137.438 11.924C137.294 11.24 136.898 9.596 136.25 6.992C135.614 8.156 134.774 9.794 133.73 11.906ZM146.093 16.352C146.093 16.628 146.033 16.886 145.913 17.126C144.833 17.042 144.071 17 143.627 17L141.917 17.126C141.917 16.85 141.977 16.592 142.097 16.352C142.565 16.22 142.967 16.01 143.303 15.722C143.519 14.138 143.669 12.842 143.753 11.834C143.837 10.814 143.921 9.71 144.005 8.522C144.101 7.334 144.179 6.404 144.239 5.732L142.745 5.408C142.745 5.132 142.805 4.874 142.925 4.634C143.693 4.718 144.317 4.76 144.797 4.76H145.769C146.813 6.884 147.881 8.906 148.973 10.826C150.065 12.746 150.677 13.826 150.809 14.066C151.169 10.634 151.397 7.856 151.493 5.732L149.963 5.408C149.963 5.132 150.023 4.874 150.143 4.634C150.947 4.718 151.553 4.76 151.961 4.76C152.609 4.76 153.263 4.724 153.923 4.652L154.193 4.634C154.193 4.91 154.133 5.168 154.013 5.408C153.461 5.504 153.017 5.684 152.681 5.948C152.249 9.488 151.961 13.172 151.817 17L151.565 17.18L150.503 17C148.259 12.728 146.525 9.506 145.301 7.334C145.121 8.786 144.893 11.69 144.617 16.046L146.093 16.352ZM157.125 4.76L160.275 4.58C160.923 4.58 161.517 4.7 162.057 4.94C162.597 5.18 163.047 5.492 163.407 5.876C163.767 6.26 164.073 6.704 164.325 7.208C164.793 8.132 165.027 9.098 165.027 10.106C165.027 12.254 164.397 13.97 163.137 15.254C161.877 16.538 160.173 17.18 158.025 17.18C157.641 17.18 157.215 17.15 156.747 17.09C156.279 17.03 155.973 17 155.829 17H155.451L153.975 17.126C153.975 16.85 154.035 16.592 154.155 16.352C154.635 16.208 155.043 15.992 155.379 15.704C155.631 13.58 155.895 10.256 156.171 5.732L154.839 5.408C154.839 5.132 154.899 4.874 155.019 4.634C155.979 4.718 156.681 4.76 157.125 4.76ZM159.951 5.75H157.521C157.305 7.598 157.173 8.954 157.125 9.818C157.089 10.67 157.047 11.72 156.999 12.968C156.951 14.216 156.909 15.2 156.873 15.92H160.347C161.271 15.56 162.039 14.84 162.651 13.76C163.275 12.68 163.587 11.576 163.587 10.448C163.587 9.308 163.245 8.24 162.561 7.244C161.877 6.248 161.007 5.75 159.951 5.75ZM169.909 5.75C169.141 6.038 168.757 6.602 168.757 7.442C168.757 8.27 169.435 9.074 170.791 9.854C171.931 10.502 172.753 11.09 173.257 11.618C173.773 12.146 174.031 12.71 174.031 13.31C174.031 14.642 173.605 15.65 172.753 16.334C171.913 17.018 170.731 17.36 169.207 17.36C167.347 17.36 166.237 16.94 165.877 16.1C166.129 15.644 166.333 15.05 166.489 14.318L166.579 13.958C166.879 13.85 167.203 13.796 167.551 13.796C167.455 14.06 167.407 14.366 167.407 14.714C167.407 15.302 167.563 15.704 167.875 15.92H171.475C172.183 15.476 172.537 14.828 172.537 13.976C172.537 13.424 172.321 12.914 171.889 12.446C171.457 11.966 170.785 11.462 169.873 10.934C168.973 10.406 168.331 9.95 167.947 9.566C167.563 9.182 167.371 8.696 167.371 8.108C167.371 6.896 167.779 5.99 168.595 5.39C169.411 4.79 170.485 4.49 171.817 4.49C172.441 4.49 172.993 4.598 173.473 4.814C173.965 5.018 174.259 5.27 174.355 5.57C174.103 6.026 173.893 6.62 173.725 7.352L173.653 7.712C173.353 7.82 173.029 7.874 172.681 7.874C172.777 7.61 172.825 7.304 172.825 6.956C172.825 6.368 172.669 5.966 172.357 5.75H169.909Z" fill="white"/>
<line x1="50" y1="24.5" x2="136" y2="24.5" stroke="white"/>
</svg>
