<svg width="22" height="22" viewBox="0 0 22 22" fill="none" xmlns="http://www.w3.org/2000/svg">
<path d="M16.0448 0H5.95519C2.67144 0 0 2.67144 0 5.95519V16.0449C0 19.3285 2.67144 22 5.95519 22H16.0449C19.3285 22 22 19.3285 22 16.0449V5.95519C22 2.67144 19.3285 0 16.0448 0V0ZM20.7102 16.0449C20.7102 18.6174 18.6174 20.7102 16.0448 20.7102H5.95519C3.38261 20.7102 1.28973 18.6174 1.28973 16.0449V5.95519C1.28973 3.38261 3.38261 1.28973 5.95519 1.28973H16.0449C18.6174 1.28973 20.7102 3.38261 20.7102 5.95519V16.0449Z" fill="white"/>
<path d="M11 4.98453C7.68299 4.98453 4.98453 7.68299 4.98453 11C4.98453 14.317 7.68299 17.0154 11 17.0154C14.317 17.0154 17.0154 14.317 17.0154 11C17.0154 7.68299 14.317 4.98453 11 4.98453ZM11 15.7257C8.39433 15.7257 6.27426 13.6058 6.27426 11C6.27426 8.39433 8.39433 6.27426 11 6.27426C13.6058 6.27426 15.7257 8.39433 15.7257 11C15.7257 13.6058 13.6058 15.7257 11 15.7257Z" fill="white"/>
<path d="M17.1593 2.84818C16.179 2.84818 15.3818 3.64561 15.3818 4.62567C15.3818 5.60589 16.179 6.40333 17.1593 6.40333C18.1395 6.40333 18.9369 5.60589 18.9369 4.62567C18.9369 3.64545 18.1395 2.84818 17.1593 2.84818ZM17.1593 5.11343C16.8904 5.11343 16.6715 4.89456 16.6715 4.62567C16.6715 4.35661 16.8904 4.13791 17.1593 4.13791C17.4283 4.13791 17.6472 4.35661 17.6472 4.62567C17.6472 4.89456 17.4283 5.11343 17.1593 5.11343Z" fill="white"/>
</svg>
