<svg width="33" height="36" viewBox="0 0 33 36" fill="none" xmlns="http://www.w3.org/2000/svg">
<g clip-path="url(#clip0)">
<path d="M24.3856 36C24.1953 36.0004 24.0126 35.9182 23.8778 35.7715L8.09906 18.5584C7.81908 18.2529 7.81908 17.7576 8.09906 17.452L23.8778 0.238832C24.153 -0.0719585 24.607 -0.0805406 24.892 0.219614C25.1769 0.519842 25.1848 1.01511 24.9096 1.32598C24.9038 1.3325 24.898 1.33889 24.892 1.34519L9.62102 18.0044L24.8934 34.6637C25.1739 34.9688 25.1744 35.4642 24.8947 35.7702C24.7598 35.9176 24.5766 36.0004 24.3856 36Z" fill="#F44336"/>
<path d="M24.3856 36C24.1953 36.0004 24.0126 35.9182 23.8778 35.7715L8.09906 18.5584C7.81908 18.2529 7.81908 17.7576 8.09906 17.452L23.8778 0.238832C24.153 -0.0719585 24.607 -0.0805406 24.892 0.219614C25.1769 0.519842 25.1848 1.01511 24.9096 1.32598C24.9038 1.3325 24.898 1.33889 24.892 1.34519L9.62102 18.0044L24.8934 34.6637C25.1739 34.9688 25.1744 35.4642 24.8947 35.7702C24.7598 35.9176 24.5766 36.0004 24.3856 36Z" fill="white"/>
</g>
<defs>
<clipPath id="clip0">
<rect width="33" height="36" fill="white"/>
</clipPath>
</defs>
</svg>
