<svg width="33" height="36" viewBox="0 0 33 36" fill="none" xmlns="http://www.w3.org/2000/svg">
<g clip-path="url(#clip0)">
<path d="M9.12305 0.229432C8.83817 -0.0707876 8.38412 -0.0621323 8.10892 0.24865C7.8405 0.551877 7.8405 1.03254 8.10892 1.33569L23.3795 17.996L8.1075 34.6548C7.82262 34.9551 7.81475 35.4503 8.08989 35.7612C8.36509 36.0719 8.81907 36.0805 9.10403 35.7804C9.11001 35.7741 9.11586 35.7677 9.12164 35.7612L24.9 18.5484C25.18 18.2429 25.18 17.7477 24.9 17.4421L9.12305 0.229432Z" fill="#F44336"/>
<path d="M8.61532 35.9912C8.21922 35.992 7.89756 35.6422 7.89682 35.2101C7.89648 35.0018 7.97233 34.8019 8.10754 34.6548L23.3795 17.996L8.10754 1.33727C7.8271 1.03133 7.8271 0.535336 8.10754 0.229395C8.38799 -0.0765464 8.84265 -0.0765464 9.12309 0.229395L24.9014 17.4421C25.1814 17.7476 25.1814 18.2429 24.9014 18.5485L9.12309 35.7611C8.98862 35.9083 8.80587 35.9912 8.61532 35.9912Z" fill="white"/>
</g>
<defs>
<clipPath id="clip0">
<rect width="33" height="36" fill="white"/>
</clipPath>
</defs>
</svg>
