<svg width="564" height="38" viewBox="0 0 564 38" fill="none" xmlns="http://www.w3.org/2000/svg">
<rect width="564" height="38" fill="#080707" fill-opacity="0.34"/>
<path d="M496.36 22.232V23H490.468V22.388L493.96 18.968C494.4 18.536 494.696 18.164 494.848 17.852C495.008 17.532 495.088 17.212 495.088 16.892C495.088 16.396 494.916 16.012 494.572 15.74C494.236 15.46 493.752 15.32 493.12 15.32C492.136 15.32 491.372 15.632 490.828 16.256L490.216 15.728C490.544 15.344 490.96 15.048 491.464 14.84C491.976 14.632 492.552 14.528 493.192 14.528C494.048 14.528 494.724 14.732 495.22 15.14C495.724 15.54 495.976 16.092 495.976 16.796C495.976 17.228 495.88 17.644 495.688 18.044C495.496 18.444 495.132 18.904 494.596 19.424L491.74 22.232H496.36ZM500.745 23.072C500.097 23.072 499.517 22.9 499.005 22.556C498.501 22.212 498.105 21.72 497.817 21.08C497.537 20.432 497.397 19.672 497.397 18.8C497.397 17.928 497.537 17.172 497.817 16.532C498.105 15.884 498.501 15.388 499.005 15.044C499.517 14.7 500.097 14.528 500.745 14.528C501.393 14.528 501.969 14.7 502.473 15.044C502.985 15.388 503.385 15.884 503.673 16.532C503.961 17.172 504.105 17.928 504.105 18.8C504.105 19.672 503.961 20.432 503.673 21.08C503.385 21.72 502.985 22.212 502.473 22.556C501.969 22.9 501.393 23.072 500.745 23.072ZM500.745 22.28C501.233 22.28 501.661 22.144 502.029 21.872C502.405 21.6 502.697 21.204 502.905 20.684C503.113 20.164 503.217 19.536 503.217 18.8C503.217 18.064 503.113 17.436 502.905 16.916C502.697 16.396 502.405 16 502.029 15.728C501.661 15.456 501.233 15.32 500.745 15.32C500.257 15.32 499.825 15.456 499.449 15.728C499.081 16 498.793 16.396 498.585 16.916C498.377 17.436 498.273 18.064 498.273 18.8C498.273 19.536 498.377 20.164 498.585 20.684C498.793 21.204 499.081 21.6 499.449 21.872C499.825 22.144 500.257 22.28 500.745 22.28ZM511.055 22.232V23H505.163V22.388L508.655 18.968C509.095 18.536 509.391 18.164 509.543 17.852C509.703 17.532 509.783 17.212 509.783 16.892C509.783 16.396 509.611 16.012 509.267 15.74C508.931 15.46 508.447 15.32 507.815 15.32C506.831 15.32 506.067 15.632 505.523 16.256L504.911 15.728C505.239 15.344 505.655 15.048 506.159 14.84C506.671 14.632 507.247 14.528 507.887 14.528C508.743 14.528 509.419 14.732 509.915 15.14C510.419 15.54 510.671 16.092 510.671 16.796C510.671 17.228 510.575 17.644 510.383 18.044C510.191 18.444 509.827 18.904 509.291 19.424L506.435 22.232H511.055ZM515.441 23.072C514.793 23.072 514.213 22.9 513.701 22.556C513.197 22.212 512.801 21.72 512.513 21.08C512.233 20.432 512.093 19.672 512.093 18.8C512.093 17.928 512.233 17.172 512.513 16.532C512.801 15.884 513.197 15.388 513.701 15.044C514.213 14.7 514.793 14.528 515.441 14.528C516.089 14.528 516.665 14.7 517.169 15.044C517.681 15.388 518.081 15.884 518.369 16.532C518.657 17.172 518.801 17.928 518.801 18.8C518.801 19.672 518.657 20.432 518.369 21.08C518.081 21.72 517.681 22.212 517.169 22.556C516.665 22.9 516.089 23.072 515.441 23.072ZM515.441 22.28C515.929 22.28 516.357 22.144 516.725 21.872C517.101 21.6 517.393 21.204 517.601 20.684C517.809 20.164 517.913 19.536 517.913 18.8C517.913 18.064 517.809 17.436 517.601 16.916C517.393 16.396 517.101 16 516.725 15.728C516.357 15.456 515.929 15.32 515.441 15.32C514.953 15.32 514.521 15.456 514.145 15.728C513.777 16 513.489 16.396 513.281 16.916C513.073 17.436 512.969 18.064 512.969 18.8C512.969 19.536 513.073 20.164 513.281 20.684C513.489 21.204 513.777 21.6 514.145 21.872C514.521 22.144 514.953 22.28 515.441 22.28Z" fill="white"/>
</svg>
