<svg width="114" height="40" viewBox="0 0 114 40" fill="none" xmlns="http://www.w3.org/2000/svg">
<rect x="0.5" y="0.5" width="113" height="39" stroke="white"/>
<path d="M20.288 25L18.048 21.85C17.796 21.878 17.5347 21.892 17.264 21.892H14.632V25H13.596V15.2H17.264C18.5147 15.2 19.4947 15.4987 20.204 16.096C20.9133 16.6933 21.268 17.5147 21.268 18.56C21.268 19.3253 21.072 19.974 20.68 20.506C20.2973 21.0287 19.7467 21.4067 19.028 21.64L21.422 25H20.288ZM17.236 21.01C18.2067 21.01 18.9487 20.7953 19.462 20.366C19.9753 19.9367 20.232 19.3347 20.232 18.56C20.232 17.7667 19.9753 17.16 19.462 16.74C18.9487 16.3107 18.2067 16.096 17.236 16.096H14.632V21.01H17.236ZM30.6432 24.104V25H23.7132V15.2H30.4332V16.096H24.7492V19.582H29.8172V20.464H24.7492V24.104H30.6432ZM39.2244 22.382H33.7644L32.5884 25H31.5104L35.9904 15.2H37.0124L41.4924 25H40.4004L39.2244 22.382ZM38.8464 21.542L36.4944 16.278L34.1424 21.542H38.8464ZM43.1136 15.2H47.1036C48.1396 15.2 49.0542 15.41 49.8476 15.83C50.6409 16.2407 51.2569 16.8193 51.6956 17.566C52.1342 18.3033 52.3536 19.148 52.3536 20.1C52.3536 21.052 52.1342 21.9013 51.6956 22.648C51.2569 23.3853 50.6409 23.964 49.8476 24.384C49.0542 24.7947 48.1396 25 47.1036 25H43.1136V15.2ZM47.0476 24.104C47.9062 24.104 48.6576 23.936 49.3016 23.6C49.9456 23.2547 50.4449 22.7833 50.7996 22.186C51.1542 21.5793 51.3316 20.884 51.3316 20.1C51.3316 19.316 51.1542 18.6253 50.7996 18.028C50.4449 17.4213 49.9456 16.95 49.3016 16.614C48.6576 16.2687 47.9062 16.096 47.0476 16.096H44.1496V24.104H47.0476ZM68.522 15.2V25H67.528V17.16L63.678 23.754H63.188L59.338 17.202V25H58.344V15.2H59.198L63.454 22.466L67.668 15.2H68.522ZM75.9991 25.084C75.0285 25.084 74.1465 24.8693 73.3531 24.44C72.5691 24.0013 71.9531 23.404 71.5051 22.648C71.0665 21.892 70.8471 21.0427 70.8471 20.1C70.8471 19.1573 71.0665 18.308 71.5051 17.552C71.9531 16.796 72.5691 16.2033 73.3531 15.774C74.1465 15.3353 75.0285 15.116 75.9991 15.116C76.9698 15.116 77.8425 15.3307 78.6171 15.76C79.4011 16.1893 80.0171 16.7867 80.4651 17.552C80.9131 18.308 81.1371 19.1573 81.1371 20.1C81.1371 21.0427 80.9131 21.8967 80.4651 22.662C80.0171 23.418 79.4011 24.0107 78.6171 24.44C77.8425 24.8693 76.9698 25.084 75.9991 25.084ZM75.9991 24.16C76.7738 24.16 77.4738 23.9873 78.0991 23.642C78.7245 23.2873 79.2145 22.802 79.5691 22.186C79.9238 21.5607 80.1011 20.8653 80.1011 20.1C80.1011 19.3347 79.9238 18.644 79.5691 18.028C79.2145 17.4027 78.7245 16.9173 78.0991 16.572C77.4738 16.2173 76.7738 16.04 75.9991 16.04C75.2245 16.04 74.5198 16.2173 73.8851 16.572C73.2598 16.9173 72.7651 17.4027 72.4011 18.028C72.0465 18.644 71.8691 19.3347 71.8691 20.1C71.8691 20.8653 72.0465 21.5607 72.4011 22.186C72.7651 22.802 73.2598 23.2873 73.8851 23.642C74.5198 23.9873 75.2245 24.16 75.9991 24.16ZM90.1513 25L87.9113 21.85C87.6593 21.878 87.3979 21.892 87.1273 21.892H84.4953V25H83.4593V15.2H87.1273C88.3779 15.2 89.3579 15.4987 90.0673 16.096C90.7766 16.6933 91.1313 17.5147 91.1313 18.56C91.1313 19.3253 90.9353 19.974 90.5433 20.506C90.1606 21.0287 89.6099 21.4067 88.8913 21.64L91.2853 25H90.1513ZM87.0993 21.01C88.0699 21.01 88.8119 20.7953 89.3253 20.366C89.8386 19.9367 90.0953 19.3347 90.0953 18.56C90.0953 17.7667 89.8386 17.16 89.3253 16.74C88.8119 16.3107 88.0699 16.096 87.0993 16.096H84.4953V21.01H87.0993ZM100.506 24.104V25H93.5765V15.2H100.296V16.096H94.6125V19.582H99.6805V20.464H94.6125V24.104H100.506Z" fill="white"/>
</svg>
