<svg width="22" height="22" viewBox="0 0 22 22" fill="none" xmlns="http://www.w3.org/2000/svg">
<g clip-path="url(#clip0)">
<path d="M22 4.42429C20.6161 4.48807 20.6463 4.48286 20.4899 4.49596L21.3095 2.15533C21.3095 2.15533 18.7512 3.09645 18.1026 3.2648C16.3993 1.73387 13.8675 1.66623 12.0574 2.77872C10.5752 3.68996 9.77959 5.25479 10.045 7.08382C7.16017 6.6835 4.72958 5.31605 2.81059 3.01085L2.20366 2.28189L1.75014 3.11475C1.17694 4.16714 0.986603 5.37044 1.21403 6.5029C1.30736 6.9675 1.46597 7.41061 1.68568 7.82553L1.16502 7.62378L1.10326 8.49373C1.04065 9.37744 1.33488 10.409 1.89046 11.253C2.04689 11.4906 2.24831 11.7516 2.5036 12.0091L2.23454 11.9678L2.56285 12.9647C2.99438 14.2744 3.89069 15.2877 5.05386 15.851C3.8922 16.3439 2.95377 16.6585 1.41125 17.1659L0 17.6298L1.3035 18.3425C1.80049 18.6142 3.55667 19.5218 5.29187 19.794C9.14899 20.3989 13.4917 19.9063 16.4152 17.2733C18.8777 15.0555 19.6857 11.9008 19.5179 8.61793C19.4925 8.12094 19.6287 7.64661 19.9012 7.28255C20.4472 6.55359 21.9966 4.42915 22 4.42429ZM18.8705 6.51045C18.4178 7.11487 18.1911 7.88679 18.2317 8.68373C18.401 11.9952 17.5 14.5632 15.5535 16.3162C13.2797 18.3641 9.61207 19.1679 5.49144 18.5216C4.74519 18.4046 3.97394 18.1426 3.33562 17.8809C4.62888 17.4359 5.62756 17.0393 7.2404 16.2759L9.4919 15.2103L7.00609 15.0512C5.81538 14.975 4.82391 14.3979 4.21446 13.461C4.53807 13.4422 4.8501 13.3898 5.16078 13.3032L7.53162 12.6429L5.14098 12.0574C3.97931 11.7729 3.31715 11.0779 2.96619 10.5448C2.73573 10.1945 2.58517 9.83566 2.49487 9.50484C2.73456 9.56912 3.01402 9.61494 3.46469 9.65959L5.67741 9.87846L3.92426 8.51085C2.66104 7.52559 2.15482 6.04535 2.52592 4.62234C6.46831 8.71143 11.0972 8.4041 11.5631 8.51219C11.4606 7.51602 11.4579 7.51367 11.431 7.41884C10.8343 5.30951 12.142 4.23848 12.7318 3.87593C13.9638 3.11877 15.9194 3.00464 17.2739 4.25207C17.5665 4.5213 17.9621 4.62721 18.3324 4.53523C18.6647 4.45265 18.9375 4.3652 19.2045 4.27003L18.6486 5.85753L19.3583 5.85803C19.2243 6.03763 19.0637 6.25264 18.8705 6.51045Z" fill="white"/>
</g>
<defs>
<clipPath id="clip0">
<rect width="22" height="22" fill="white"/>
</clipPath>
</defs>
</svg>
